<svg width="18" height="11" viewBox="0 0 18 11" fill="none" xmlns="http://www.w3.org/2000/svg">
<path d="M1.2224 1.85938H16.2001C16.7162 1.85938 17.0848 1.53281 17.0848 1.03777C17.0848 0.542737 16.7162 0.205688 16.2001 0.205688H1.2224C0.706287 0.205688 0.337646 0.542737 0.337646 1.03777C0.337646 1.53281 0.706287 1.85938 1.2224 1.85938ZM3.22363 6.34628H14.1988C14.7149 6.34628 15.0835 6.0198 15.0835 5.52475C15.0835 5.02969 14.7149 4.69264 14.1988 4.69264H3.22363C2.70752 4.69264 2.33888 5.02969 2.33888 5.52475C2.33888 6.0198 2.70752 6.34628 3.22363 6.34628ZM5.31966 10.8649H12.1133C12.6189 10.8649 12.9876 10.5279 12.9876 10.0328C12.9876 9.53774 12.6189 9.21126 12.1133 9.21126H5.31966C4.80354 9.21126 4.4349 9.53774 4.4349 10.0328C4.4349 10.5279 4.80354 10.8649 5.31966 10.8649Z" fill="#656E73"/>
</svg>
