<svg width="20" height="21" viewBox="0 0 20 21" fill="none" xmlns="http://www.w3.org/2000/svg">
<g clip-path="url(#clip0_120_150)">
<path d="M0 16.3209C0 16.9735 0.501326 17.4111 1.32095 17.4111H5.99204C6.06366 19.3528 7.53581 20.9841 9.59678 20.9841C11.6578 20.9841 13.13 19.3608 13.2016 17.4111H17.8647C18.6923 17.4111 19.1936 16.9735 19.1936 16.3209C19.1936 15.2944 18.1751 14.3793 17.3077 13.4721C16.5278 12.6366 16.4085 10.9337 16.2732 9.47748C16.1379 5.76923 15.0955 3.28647 12.4456 2.38727C12.1273 1.02653 11.0531 0 9.59678 0C8.14058 0 7.05835 1.02653 6.74801 2.38727C4.09814 3.28647 3.0557 5.76923 2.92042 9.47748C2.78515 10.9337 2.66578 12.6366 1.88594 13.4721C1.01061 14.3793 0 15.2944 0 16.3209ZM1.69496 16.0822V15.9628C1.8382 15.5889 2.49868 14.9125 3.07162 14.2838C3.93103 13.3449 4.1618 11.7055 4.313 9.60476C4.47215 5.54642 5.70556 4.09018 7.4801 3.60477C7.76657 3.53316 7.92572 3.39787 7.94164 3.12732C8.0053 2.06101 8.61806 1.29708 9.59678 1.29708C10.5756 1.29708 11.1883 2.06101 11.244 3.12732C11.2679 3.39787 11.427 3.53316 11.7135 3.60477C13.488 4.09018 14.7215 5.54642 14.8806 9.60476C15.0318 11.7055 15.2626 13.3449 16.122 14.2838C16.695 14.9125 17.3554 15.5889 17.4987 15.9628V16.0822H1.69496ZM7.36074 17.4111H11.8329C11.7533 18.8355 10.8541 19.7507 9.59678 19.7507C8.33954 19.7507 7.44031 18.8355 7.36074 17.4111Z" fill="black" fill-opacity="0.85"/>
</g>
<defs>
<clipPath id="clip0_120_150">
<rect width="19.488" height="21" fill="white"/>
</clipPath>
</defs>
</svg>
