<svg width="25" height="21" viewBox="0 0 25 21" fill="none" xmlns="http://www.w3.org/2000/svg">
<g clip-path="url(#clip0_120_252)">
<path d="M0 18.8626C0 19.6287 0.504874 19.9334 1.06198 19.9334C1.40146 19.9334 1.68002 19.7593 2.03691 19.5242C3.25556 18.5928 4.88336 18.027 6.59818 18.0357C8.30431 18.0444 10.0017 18.6973 11.2726 19.9595C11.6818 20.3425 11.9951 20.4643 12.3433 20.4643C12.6915 20.4643 13.0136 20.3425 13.4053 19.9595C14.6936 18.7059 16.3736 18.0444 18.0797 18.0357C19.7945 18.027 21.4311 18.5928 22.641 19.5242C22.9979 19.7593 23.2851 19.9334 23.6159 19.9334C24.173 19.9334 24.6779 19.6287 24.6779 18.8626V3.63809C24.6779 3.43788 24.6605 3.2986 24.5474 3.1071C23.5375 1.40098 21.0307 -0.000488281 18.0449 -0.000488281C15.5554 -0.000488281 13.4662 1.00926 12.3433 2.44554C11.2117 1.00926 9.12258 -0.000488281 6.63301 -0.000488281C3.64728 -0.000488281 1.14032 1.40098 0.130571 3.1071C0.0174094 3.2986 0 3.43788 0 3.63809V18.8626ZM1.54074 18.0009V3.8296C2.46344 2.45425 4.50035 1.54025 6.63301 1.54025C8.8353 1.54025 10.7155 2.46295 11.5686 3.92535V18.2098C10.4544 17.2784 8.61768 16.495 6.63301 16.495C4.56128 16.495 2.70717 17.0956 1.54074 18.0009ZM13.1093 18.2098V3.92535C13.9624 2.46295 15.8513 1.54025 18.0449 1.54025C20.1775 1.54025 22.2145 2.45425 23.1371 3.8296V18.0009C21.9794 17.0956 20.1167 16.495 18.0449 16.495C16.0602 16.495 14.2235 17.2784 13.1093 18.2098Z" fill="black" fill-opacity="0.85"/>
</g>
<defs>
<clipPath id="clip0_120_252">
<rect width="25" height="20.4822" fill="white"/>
</clipPath>
</defs>
</svg>
