<svg width="18" height="16" viewBox="0 0 18 16" fill="none" xmlns="http://www.w3.org/2000/svg">
<path d="M2.64416 16.0004H14.7682C16.5294 16.0004 17.4202 15.1164 17.4202 13.3825V2.63869C17.4202 0.904732 16.5294 0.020752 14.7682 0.020752H2.64416C0.889804 0.020752 -0.000976562 0.897929 -0.000976562 2.63869V13.3825C-0.000976562 15.1232 0.889804 16.0004 2.64416 16.0004ZM2.54896 14.7968C1.67858 14.7968 1.2026 14.3344 1.2026 13.4368V5.32462C1.2026 4.42025 1.67858 3.96466 2.54896 3.96466H14.8567C15.7202 3.96466 16.2098 4.42025 16.2098 5.32462V13.4368C16.2098 14.3344 15.7202 14.7968 14.8567 14.7968H2.54896ZM6.97563 7.09255H7.49243C7.7848 7.09255 7.86641 7.01101 7.86641 6.72539V6.2154C7.86641 5.9298 7.7848 5.85501 7.49243 5.85501H6.97563C6.69006 5.85501 6.60846 5.9298 6.60846 6.2154V6.72539C6.60846 7.01101 6.69006 7.09255 6.97563 7.09255ZM9.9336 7.09255H10.4504C10.7359 7.09255 10.8176 7.01101 10.8176 6.72539V6.2154C10.8176 5.9298 10.7359 5.85501 10.4504 5.85501H9.9336C9.64122 5.85501 9.55961 5.9298 9.55961 6.2154V6.72539C9.55961 7.01101 9.64122 7.09255 9.9336 7.09255ZM12.8847 7.09255H13.4015C13.6871 7.09255 13.7755 7.01101 13.7755 6.72539V6.2154C13.7755 5.9298 13.6871 5.85501 13.4015 5.85501H12.8847C12.5991 5.85501 12.5108 5.9298 12.5108 6.2154V6.72539C12.5108 7.01101 12.5991 7.09255 12.8847 7.09255ZM4.02453 9.99613H4.54131C4.8269 9.99613 4.91531 9.92128 4.91531 9.63572V9.11893C4.91531 8.84013 4.8269 8.75852 4.54131 8.75852H4.02453C3.73893 8.75852 3.65053 8.84013 3.65053 9.11893V9.63572C3.65053 9.92128 3.73893 9.99613 4.02453 9.99613ZM6.97563 9.99613H7.49243C7.7848 9.99613 7.86641 9.92128 7.86641 9.63572V9.11893C7.86641 8.84013 7.7848 8.75852 7.49243 8.75852H6.97563C6.69006 8.75852 6.60846 8.84013 6.60846 9.11893V9.63572C6.60846 9.92128 6.69006 9.99613 6.97563 9.99613ZM9.9336 9.99613H10.4504C10.7359 9.99613 10.8176 9.92128 10.8176 9.63572V9.11893C10.8176 8.84013 10.7359 8.75852 10.4504 8.75852H9.9336C9.64122 8.75852 9.55961 8.84013 9.55961 9.11893V9.63572C9.55961 9.92128 9.64122 9.99613 9.9336 9.99613ZM12.8847 9.99613H13.4015C13.6871 9.99613 13.7755 9.92128 13.7755 9.63572V9.11893C13.7755 8.84013 13.6871 8.75852 13.4015 8.75852H12.8847C12.5991 8.75852 12.5108 8.84013 12.5108 9.11893V9.63572C12.5108 9.92128 12.5991 9.99613 12.8847 9.99613ZM4.02453 12.9065H4.54131C4.8269 12.9065 4.91531 12.8316 4.91531 12.5461V12.0293C4.91531 11.7436 4.8269 11.6689 4.54131 11.6689H4.02453C3.73893 11.6689 3.65053 11.7436 3.65053 12.0293V12.5461C3.65053 12.8316 3.73893 12.9065 4.02453 12.9065ZM6.97563 12.9065H7.49243C7.7848 12.9065 7.86641 12.8316 7.86641 12.5461V12.0293C7.86641 11.7436 7.7848 11.6689 7.49243 11.6689H6.97563C6.69006 11.6689 6.60846 11.7436 6.60846 12.0293V12.5461C6.60846 12.8316 6.69006 12.9065 6.97563 12.9065ZM9.9336 12.9065H10.4504C10.7359 12.9065 10.8176 12.8316 10.8176 12.5461V12.0293C10.8176 11.7436 10.7359 11.6689 10.4504 11.6689H9.9336C9.64122 11.6689 9.55961 11.7436 9.55961 12.0293V12.5461C9.55961 12.8316 9.64122 12.9065 9.9336 12.9065Z" fill="#656E73" fill-opacity="0.85"/>
</svg>
