<svg width="8" height="12" viewBox="0 0 8 12" fill="none" xmlns="http://www.w3.org/2000/svg">
<g clip-path="url(#clip0_120_258)">
<path d="M7.8966 5.99742C7.8966 5.84706 7.83958 5.72261 7.73069 5.61893L2.40076 0.491179C2.30225 0.392668 2.17781 0.34082 2.03264 0.34082C1.74229 0.34082 1.51416 0.558581 1.51416 0.854114C1.51416 0.994103 1.57119 1.12372 1.66452 1.21705L6.63152 5.99742L1.66452 10.7726C1.57119 10.8659 1.51416 10.9904 1.51416 11.1355C1.51416 11.4311 1.74229 11.654 2.03264 11.654C2.17781 11.654 2.30225 11.597 2.40076 11.5037L7.73069 6.37591C7.83958 6.26702 7.8966 6.14257 7.8966 5.99742Z" fill="black" fill-opacity="0.85"/>
</g>
<defs>
<clipPath id="clip0_120_258">
<rect width="7.8964" height="11.3184" fill="white" transform="translate(0 0.34082)"/>
</clipPath>
</defs>
</svg>
