<svg width="20" height="16" viewBox="0 0 20 16" fill="none" xmlns="http://www.w3.org/2000/svg">
<path d="M3.50384 3.45212V15.2889H4.64808V3.45212H3.50384ZM14.4097 3.45212V15.2889H15.554V3.45212H14.4097ZM2.4501 15.9936H16.6077C18.2497 15.9936 19.0578 15.1984 19.0578 13.5758V5.38506C19.0578 3.75596 18.2497 2.96081 16.6077 2.96081H2.4501C0.814547 2.96081 0 3.75596 0 5.38506V13.5758C0 15.1984 0.814547 15.9936 2.4501 15.9936ZM2.46303 14.8558C1.5903 14.8558 1.14425 14.4226 1.14425 13.5241V5.43677C1.14425 4.53172 1.5903 4.09859 2.46303 4.09859H16.5948C17.474 4.09859 17.9135 4.53172 17.9135 5.43677V13.5241C17.9135 14.4226 17.474 14.8558 16.5948 14.8558H2.46303ZM5.37859 3.59435H6.48405V2.05576C6.48405 1.41576 6.87195 1.04727 7.54426 1.04727H11.5071C12.1859 1.04727 12.5737 1.41576 12.5737 2.05576V3.58142H13.6792V2.13334C13.6792 0.698184 12.897 0 11.4877 0H7.57008C6.22546 0 5.37859 0.698184 5.37859 2.13334V3.59435Z" fill="#656E73" fill-opacity="0.85"/>
</svg>
