<svg width="20" height="16" viewBox="0 0 20 16" fill="none" xmlns="http://www.w3.org/2000/svg">
<path d="M15.9105 2.39279V3.57364H14.8104V2.45494C14.8104 1.55997 14.3194 1.10006 13.468 1.10006H2.44251C1.5724 1.10006 1.10006 1.55997 1.10006 2.45494V9.93782C1.10006 10.8328 1.5724 11.2927 2.44251 11.2927H3.85954V12.3928H2.41765C0.807954 12.3928 0 11.5911 0 10V2.39279C0 0.807954 0.807954 0 2.41765 0H13.4929C15.0901 0 15.9105 0.814172 15.9105 2.39279Z" fill="#8957FB" fill-opacity="0.85"/>
<path d="M6.27751 15.9664H17.3465C18.95 15.9664 19.7704 15.1522 19.7704 13.5736V5.9664C19.7704 4.38778 18.95 3.57361 17.3465 3.57361H6.27751C4.66782 3.57361 3.85986 4.38157 3.85986 5.9664V13.5736C3.85986 15.1646 4.66782 15.9664 6.27751 15.9664ZM6.29616 14.8663C5.43227 14.8663 4.95993 14.4064 4.95993 13.5176V6.02855C4.95993 5.13359 5.43227 4.67367 6.29616 4.67367H17.3279C18.1793 4.67367 18.6641 5.13359 18.6641 6.02855V13.5176C18.6641 14.4064 18.1793 14.8663 17.3279 14.8663H6.29616Z" fill="#8957FB" fill-opacity="0.85"/>
</svg>
