<svg width="22" height="21" viewBox="0 0 22 21" fill="none" xmlns="http://www.w3.org/2000/svg">
<g clip-path="url(#clip0_120_146)">
<path d="M-0.000976562 8.42329C-0.000976562 13.0595 3.77785 16.8383 8.42232 16.8383C10.2951 16.8383 12.0181 16.2223 13.4164 15.1819L18.9015 20.6754C19.1096 20.8918 19.4009 21 19.7005 21C20.3581 21 20.7992 20.5005 20.7992 19.8763C20.7992 19.5684 20.691 19.302 20.4913 19.0939L15.0311 13.6088C16.1631 12.1855 16.8456 10.3793 16.8456 8.42329C16.8456 3.77883 13.0668 0 8.42232 0C3.77785 0 -0.000976562 3.77883 -0.000976562 8.42329ZM1.5555 8.42329C1.5555 4.63614 4.63516 1.55648 8.42232 1.55648C12.2095 1.55648 15.2808 4.63614 15.2808 8.42329C15.2808 12.2021 12.2095 15.2818 8.42232 15.2818C4.63516 15.2818 1.5555 12.2021 1.5555 8.42329Z" fill="black" fill-opacity="0.85"/>
</g>
<defs>
<clipPath id="clip0_120_146">
<rect width="21.1082" height="21" fill="white"/>
</clipPath>
</defs>
</svg>
