<svg width="27" height="16" viewBox="0 0 27 16" fill="none" xmlns="http://www.w3.org/2000/svg">
<g clip-path="url(#clip0_120_98)">
<path d="M4.32324 13.116V2.31162C4.32324 1.63863 4.65974 1.30945 5.32542 1.30945H21.404C22.0697 1.30945 22.4062 1.63863 22.4062 2.31162V13.116H4.32324Z" fill="black" fill-opacity="0.2125"/>
<path d="M0 14.0889C0 14.6302 0.424275 15.0618 0.95828 15.0618H25.7711C26.3051 15.0618 26.7294 14.6302 26.7294 14.0889C26.7294 13.5475 26.3051 13.116 25.7711 13.116H23.7009V1.96778C23.7009 0.680322 23.0206 0.0146484 21.7332 0.0146484H4.99621C3.76728 0.0146484 3.02845 0.680322 3.02845 1.96778V13.116H0.95828C0.424275 13.116 0 13.5475 0 14.0889ZM4.32322 13.116V2.31159C4.32322 1.6386 4.65971 1.30942 5.32539 1.30942H21.404C22.0696 1.30942 22.4061 1.6386 22.4061 2.31159V13.116H4.32322Z" fill="black" fill-opacity="0.85"/>
</g>
<defs>
<clipPath id="clip0_120_98">
<rect width="27" height="15.0618" fill="white"/>
</clipPath>
</defs>
</svg>
