<svg width="20" height="19" viewBox="0 0 20 19" fill="none" xmlns="http://www.w3.org/2000/svg">
<path d="M9.19647 5.77082L8.15689 6.81735C9.45467 6.85921 10.2988 7.22205 10.9547 7.88483C12.5594 9.48253 12.5524 11.778 10.9477 13.3757L8.01043 16.313C6.39874 17.9177 4.11727 17.9316 2.51955 16.3339C0.907887 14.7222 0.92184 12.4338 2.52653 10.836L4.50799 8.84761C4.30565 8.37322 4.24984 7.7941 4.34752 7.27084L1.58465 10.0337C-0.515412 12.1338 -0.54332 15.1199 1.59163 17.2548C3.72657 19.3898 6.71968 19.3619 8.81275 17.2618L11.8896 14.185C13.9896 12.0779 14.0176 9.09181 11.8826 6.95689C11.2477 6.32897 10.4593 5.91035 9.19647 5.77082ZM9.61513 13.0757L10.6477 12.0292C9.35693 11.9873 8.51275 11.6245 7.8569 10.9616C6.25222 9.36394 6.2592 7.06852 7.8639 5.4708L10.8012 2.53351C12.4129 0.928813 14.6943 0.91486 16.2921 2.51258C17.9037 4.12426 17.8898 6.41269 16.2851 8.01043L14.3036 9.99886C14.506 10.4732 14.5618 11.0524 14.4641 11.5756L17.227 8.81275C19.327 6.7127 19.3479 3.72657 17.22 1.59163C15.078 -0.54332 12.0919 -0.515412 9.99886 1.58465L6.922 4.66148C4.82195 6.76153 4.79404 9.75466 6.92898 11.8896C7.56391 12.5175 8.34529 12.9361 9.61513 13.0757Z" fill="black" fill-opacity="0.85"/>
</svg>
