<svg width="81" height="82" viewBox="0 0 81 82" fill="none" xmlns="http://www.w3.org/2000/svg">
<path fill-rule="evenodd" clip-rule="evenodd" d="M42.6807 0.986858C41.5173 -0.312676 39.4827 -0.312677 38.3193 0.986857L29.5552 10.7767C28.9623 11.439 28.1005 11.796 27.213 11.7469L14.0933 11.0216C12.3518 10.9253 10.9131 12.364 11.0094 14.1055L11.7347 27.2252C11.7838 28.1127 11.4268 28.9745 10.7645 29.5674L0.974651 38.3315C-0.324883 39.4949 -0.324884 41.5295 0.974649 42.6929L10.7645 51.457C11.4268 52.0499 11.7838 52.9117 11.7347 53.7992L11.0094 66.9189C10.9131 68.6604 12.3518 70.0991 14.0933 70.0028L27.213 69.2775C28.1005 69.2285 28.9623 69.5854 29.5552 70.2477L38.3193 80.0376C39.4827 81.3371 41.5173 81.3371 42.6807 80.0376L51.4448 70.2477C52.0377 69.5854 52.8995 69.2285 53.787 69.2775L66.9067 70.0028C68.6482 70.0991 70.0869 68.6604 69.9906 66.9189L69.2653 53.7992C69.2162 52.9117 69.5732 52.0499 70.2355 51.457L80.0254 42.6929C81.3249 41.5295 81.3249 39.4949 80.0254 38.3315L70.2355 29.5674C69.5732 28.9745 69.2162 28.1127 69.2653 27.2252L69.9906 14.1055C70.0869 12.364 68.6482 10.9253 66.9067 11.0216L53.787 11.7469C52.8995 11.796 52.0377 11.439 51.4448 10.7767L42.6807 0.986858ZM42.0984 18.0952C41.3216 16.9854 39.6781 16.9854 38.9013 18.0952L34.7852 23.9755C34.3503 24.5969 33.5946 24.9099 32.8476 24.7781L25.779 23.5306C24.4451 23.2952 23.2829 24.4573 23.5184 25.7912L24.7659 32.8598C24.8977 33.6068 24.5847 34.3625 23.9633 34.7974L18.0829 38.9135C16.9732 39.6903 16.9732 41.3338 18.0829 42.1106L23.9633 46.2267C24.5847 46.6617 24.8977 47.4174 24.7659 48.1643L23.5184 55.2329C23.2829 56.5668 24.4451 57.729 25.779 57.4935L32.8476 56.246C33.5946 56.1142 34.3503 56.4272 34.7852 57.0486L38.9013 62.929C39.6781 64.0387 41.3216 64.0387 42.0984 62.929L46.2145 57.0486C46.6495 56.4272 47.4052 56.1142 48.1521 56.246L55.2207 57.4935C56.5546 57.729 57.7168 56.5668 57.4813 55.2329L56.2338 48.1643C56.102 47.4174 56.415 46.6617 57.0364 46.2267L62.9168 42.1106C64.0265 41.3338 64.0265 39.6903 62.9168 38.9135L57.0364 34.7974C56.415 34.3625 56.102 33.6068 56.2338 32.8598L57.4813 25.7912C57.7168 24.4573 56.5546 23.2952 55.2207 23.5306L48.1521 24.7781C47.4051 24.9099 46.6495 24.5969 46.2145 23.9755L42.0984 18.0952Z" fill="white"/>
</svg>
