<svg width="26" height="25" viewBox="0 0 26 25" fill="none" xmlns="http://www.w3.org/2000/svg">
<g clip-path="url(#clip0_120_337)">
<path d="M18.7635 3.52757L17.3036 4.98838H6.49406C5.34478 4.98838 4.7164 5.60022 4.7164 6.79084V18.912C4.7164 20.1026 5.34478 20.7145 6.49406 20.7145H18.6566C19.8059 20.7145 20.4343 20.1026 20.4343 18.912V8.18614L21.8977 6.72058V18.9947C21.8977 21.1113 20.8146 22.1779 18.6813 22.1779H6.46926C4.33607 22.1779 3.25293 21.1113 3.25293 18.9947V6.71642C3.25293 4.59977 4.33607 3.5249 6.46926 3.5249H18.6813C18.7096 3.5249 18.7376 3.52509 18.7635 3.52757Z" fill="black" fill-opacity="0.85"/>
<path d="M10.5372 15.1666L12.4554 14.315L22.4021 4.36831L21.0874 3.06195L11.1491 13.0086L10.2479 14.8689C10.1652 15.026 10.3636 15.241 10.5372 15.1666ZM23.1545 3.63244L23.8739 2.88831C24.2211 2.53278 24.2294 2.07803 23.8904 1.73904L23.6837 1.53232C23.3695 1.21814 22.8982 1.25948 22.5675 1.5902L21.8398 2.30953L23.1545 3.63244Z" fill="black" fill-opacity="0.85"/>
</g>
<defs>
<clipPath id="clip0_120_337">
<rect width="25.4578" height="25" fill="white"/>
</clipPath>
</defs>
</svg>
