<svg width="26" height="25" viewBox="0 0 26 25" fill="none" xmlns="http://www.w3.org/2000/svg">
<g clip-path="url(#clip0_120_358)">
<path d="M16.8397 23.4445C20.7314 23.4445 23.2382 20.9377 23.2382 17.0458V11.4801C23.2382 10.0185 22.7878 8.84582 21.8871 8.01308L14.9617 1.6485C13.6361 0.424872 12.234 0 10.543 0H7.16955C5.24913 0 4 1.24913 4 3.17804V20.2749C4 22.2633 5.18114 23.4445 7.19504 23.4445H16.8397ZM16.7971 21.9404H7.22903C6.03088 21.9404 5.50405 21.473 5.50405 20.2494V3.21204C5.50405 2.16684 6.14136 1.50405 7.20353 1.50405H10.509C11.8771 1.50405 12.9223 1.84394 13.925 2.75317L20.8334 9.09225C21.4623 9.6701 21.7257 10.3924 21.7257 11.5056V17.0119C21.7257 20.1389 19.9157 21.9404 16.7971 21.9404Z" fill="#2E3339"/>
<path d="M8.99619 12.4059H18.0799C18.4199 12.4059 18.6663 12.1765 18.6663 11.8366C18.6663 11.5052 18.4199 11.2843 18.0799 11.2843H8.99619C8.6478 11.2843 8.40137 11.5052 8.40137 11.8366C8.40137 12.1765 8.6478 12.4059 8.99619 12.4059ZM8.99619 15.601H18.0799C18.4199 15.601 18.6663 15.38 18.6663 15.0402C18.6663 14.7002 18.4199 14.4793 18.0799 14.4793H8.99619C8.6478 14.4793 8.40137 14.7002 8.40137 15.0402C8.40137 15.38 8.6478 15.601 8.99619 15.601ZM8.99619 18.813H18.0799C18.4199 18.813 18.6663 18.5921 18.6663 18.2606C18.6663 17.9208 18.4199 17.6913 18.0799 17.6913H8.99619C8.6478 17.6913 8.40137 17.9208 8.40137 18.2606C8.40137 18.5921 8.6478 18.813 8.99619 18.813Z" fill="#2E3339"/>
</g>
<defs>
<clipPath id="clip0_120_358">
<rect width="25.4578" height="25" fill="white"/>
</clipPath>
</defs>
</svg>
