<svg width="22" height="17" viewBox="0 0 22 17" fill="none" xmlns="http://www.w3.org/2000/svg">
<path d="M18.2916 7.822C18.0039 7.76318 17.7064 7.73304 17.4024 7.73304C17.3381 7.73304 17.2741 7.73439 17.2117 7.74286C16.8445 4.57062 14.1634 2.13182 10.8886 2.13182C7.36354 2.13182 4.53441 4.96667 4.53441 8.49737C4.53441 12.0224 7.36926 14.863 10.8942 14.863C11.7468 14.863 12.5587 14.6973 13.2983 14.3933C13.456 14.7136 13.6537 15.0106 13.8833 15.2802C12.9677 15.695 11.9549 15.9239 10.8942 15.9239C6.83307 15.9239 3.46777 12.5586 3.46777 8.49737C3.46777 4.4305 6.82741 1.06519 10.8886 1.06519C14.7277 1.06519 17.9467 4.06409 18.2916 7.822ZM11.3335 3.7118V8.79969C11.3335 9.05067 11.1396 9.24459 10.8886 9.24459H6.94714C6.69617 9.24459 6.50797 9.05067 6.50797 8.79969C6.50797 8.55444 6.69617 8.36052 6.94714 8.36052H10.4494V3.7118C10.4494 3.46654 10.649 3.2726 10.8886 3.2726C11.1396 3.2726 11.3335 3.46654 11.3335 3.7118Z" fill="#EB5931"/>
<path d="M21.0875 12.3304C21.0875 14.3496 19.4049 16.0209 17.4028 16.0209C15.3779 16.0209 13.7124 14.361 13.7124 12.3304C13.7124 10.3112 15.3779 8.64001 17.4028 8.64001C19.422 8.64001 21.0875 10.3055 21.0875 12.3304ZM18.7261 10.7219L16.9294 13.2031L16.0168 12.2163C15.9426 12.1365 15.8343 12.068 15.6916 12.068C15.4521 12.068 15.2696 12.2506 15.2696 12.4902C15.2696 12.5871 15.3038 12.7069 15.3836 12.7981L16.61 14.1443C16.7013 14.2412 16.8381 14.2926 16.9522 14.2926C17.1005 14.2926 17.226 14.2298 17.3001 14.1272L19.4106 11.2068C19.4676 11.1212 19.5019 11.03 19.5019 10.9501C19.5019 10.7162 19.3079 10.5337 19.0798 10.5337C18.9315 10.5337 18.806 10.6078 18.7261 10.7219Z" fill="#EB5931"/>
</svg>
