<svg width="31" height="26" viewBox="0 0 31 26" fill="none" xmlns="http://www.w3.org/2000/svg">
<path d="M13.138 21.8644C13.138 22.1597 13.1626 22.4348 13.2108 22.6891H8.55847C8.16613 22.6891 7.84588 22.3688 7.84588 21.9765C7.84588 21.5762 8.16613 21.2559 8.55847 21.2559H13.138V21.8644ZM26.3882 5.01136V14.8109H24.9711V5.04338C24.9711 4.33884 24.5548 3.93052 23.8503 3.93052H3.51452C2.80998 3.93052 2.40166 4.33884 2.40166 5.04338V16.8845C2.40166 17.5811 2.80998 17.9894 3.51452 17.9894H13.1413C13.1382 18.0147 13.138 18.042 13.138 18.0695V19.4065H3.4825C1.92129 19.4065 0.976562 18.4698 0.976562 16.9086V5.01136C0.976562 3.45015 1.92129 2.51343 3.4825 2.51343H23.8823C25.4435 2.51343 26.3882 3.45015 26.3882 5.01136Z" fill="black" fill-opacity="0.425"/>
<path d="M16.4766 23.938H27.6692C29.0303 23.938 29.7268 23.2415 29.7268 21.8644V18.1655C29.7268 16.7805 29.0303 16.0919 27.6692 16.0919H16.4766C15.0995 16.0919 14.4189 16.7805 14.4189 18.0694V21.8644C14.4189 23.2415 15.0995 23.938 16.4766 23.938ZM26.4282 20.4953C25.7957 20.4953 25.2833 19.991 25.2833 19.3585C25.2833 18.742 25.7957 18.2376 26.4282 18.2376C27.0367 18.2376 27.5491 18.742 27.5491 19.3585C27.5491 19.991 27.0367 20.4953 26.4282 20.4953Z" fill="black" fill-opacity="0.85"/>
</svg>
